<svg width="16" height="19" viewBox="0 0 16 19" fill="none" xmlns="http://www.w3.org/2000/svg">
<path d="M14.2222 2.11637H10.5067C10.1333 1.07115 9.15556 0.31427 8 0.31427C6.84444 0.31427 5.86667 1.07115 5.49333 2.11637H1.77778C0.8 2.11637 0 2.92732 0 3.91848V16.5332C0 17.5244 0.8 18.3353 1.77778 18.3353H14.2222C15.2 18.3353 16 17.5244 16 16.5332V3.91848C16 2.92732 15.2 2.11637 14.2222 2.11637ZM8 2.11637C8.48889 2.11637 8.88889 2.52185 8.88889 3.01742C8.88889 3.513 8.48889 3.91848 8 3.91848C7.51111 3.91848 7.11111 3.513 7.11111 3.01742C7.11111 2.52185 7.51111 2.11637 8 2.11637ZM8 15.6321L3.55556 11.1269H6.22222V7.52268H9.77778V11.1269H12.4444L8 15.6321Z" fill="#F0F0F0"/>
</svg>
