<svg width="18" height="19" viewBox="0 0 18 19" fill="none" xmlns="http://www.w3.org/2000/svg">
<path d="M6.35288 0.935791H10.5881V5.44104H6.35288V0.935791ZM0 14.4515H4.23525V18.9568H0V14.4515ZM0 7.69366H4.23525V12.1989H0V7.69366ZM0 0.935791H4.23525V5.44104H0V0.935791ZM10.5881 10.4193V7.69366H6.35288V12.1989H8.9152L10.5881 10.4193ZM17.8728 9.14661L16.6339 7.82882C16.5936 7.78591 16.5458 7.75187 16.4931 7.72865C16.4404 7.70542 16.3839 7.69347 16.3269 7.69347C16.2699 7.69347 16.2134 7.70542 16.1607 7.72865C16.108 7.75187 16.0602 7.78591 16.0198 7.82882L15.0881 8.81998L16.941 10.791L17.8728 9.79987C17.9131 9.75698 17.9451 9.70606 17.9669 9.65002C17.9888 9.59398 18 9.5339 18 9.47324C18 9.41257 17.9888 9.3525 17.9669 9.29646C17.9451 9.24041 17.9131 9.18949 17.8728 9.14661ZM7.41169 16.9857V18.9568H9.26461L16.3269 11.4443L14.474 9.47324L7.41169 16.9857ZM12.7058 0.935791H16.941V5.44104H12.7058V0.935791Z" fill="#F0F0F0"/>
</svg>
