<svg width="18" height="18" viewBox="0 0 18 18" fill="none" xmlns="http://www.w3.org/2000/svg">
<path d="M18 9.81081C17.8424 11.5166 17.2022 13.1423 16.1543 14.4975C15.1065 15.8528 13.6944 16.8816 12.0832 17.4636C10.4719 18.0456 8.72832 18.1566 7.05629 17.7838C5.38426 17.411 3.85298 16.5697 2.64164 15.3584C1.43031 14.147 0.589004 12.6157 0.216182 10.9437C-0.156641 9.27168 -0.0455652 7.52805 0.536413 5.91685C1.11839 4.30564 2.1472 2.8935 3.50246 1.84567C4.85772 0.797832 6.48337 0.15764 8.18919 0C7.19048 1.35113 6.7099 3.01585 6.83485 4.69137C6.95979 6.36689 7.68197 7.94191 8.87003 9.12997C10.0581 10.318 11.6331 11.0402 13.3086 11.1652C14.9842 11.2901 16.6489 10.8095 18 9.81081Z" fill="#F0F0F0"/>
</svg>
