<svg width="18" height="19" viewBox="0 0 18 19" fill="none" xmlns="http://www.w3.org/2000/svg">
<path d="M10.6886 18.6016H7.31201C7.10045 18.6017 6.89523 18.5314 6.73039 18.4026C6.56555 18.2738 6.451 18.0941 6.40572 17.8934L6.02818 16.1958C5.52453 15.9815 5.04697 15.7134 4.60428 15.3966L2.90023 15.9237C2.69853 15.9862 2.4809 15.9798 2.28348 15.9055C2.08605 15.8313 1.92071 15.6936 1.81491 15.5155L0.12293 12.6763C0.018243 12.498 -0.0210537 12.2905 0.0114686 12.0877C0.0439909 11.8849 0.146407 11.6988 0.301961 11.5599L1.62382 10.3885C1.56371 9.85792 1.56371 9.3225 1.62382 8.79188L0.301961 7.62321C0.146186 7.48425 0.0436313 7.298 0.0111037 7.095C-0.021424 6.892 0.0180055 6.68429 0.12293 6.50591L1.8112 3.6649C1.917 3.48677 2.08234 3.34916 2.27977 3.27491C2.47719 3.20066 2.69482 3.19424 2.89652 3.25672L4.60057 3.78383C4.82691 3.62164 5.06252 3.47027 5.30556 3.33331C5.54025 3.20536 5.78143 3.08912 6.02818 2.9855L6.40665 1.28972C6.45171 1.08897 6.56605 0.909199 6.73071 0.780224C6.89538 0.651248 7.10048 0.580813 7.31201 0.580597H10.6886C10.9001 0.580813 11.1052 0.651248 11.2699 0.780224C11.4345 0.909199 11.5489 1.08897 11.5939 1.28972L11.9761 2.9864C12.2358 3.09813 12.49 3.22338 12.7358 3.36304C12.9649 3.49189 13.1866 3.63336 13.4 3.78564L15.105 3.25852C15.3065 3.19627 15.524 3.20281 15.7212 3.27705C15.9184 3.35129 16.0836 3.48877 16.1894 3.6667L17.8776 6.50771C18.0928 6.87444 18.0186 7.33848 17.6986 7.62412L16.3767 8.79548C16.4369 9.3261 16.4369 9.86153 16.3767 10.3921L17.6986 11.5635C18.0186 11.85 18.0928 12.3132 17.8776 12.6799L16.1894 15.5209C16.0836 15.6991 15.9182 15.8367 15.7208 15.9109C15.5234 15.9852 15.3057 15.9916 15.104 15.9291L13.4 15.402C12.9576 15.7186 12.4804 15.9863 11.977 16.2003L11.5939 17.8934C11.5487 18.094 11.4343 18.2736 11.2696 18.4023C11.105 18.5311 10.9 18.6015 10.6886 18.6016ZM8.99657 5.98691C8.01249 5.98691 7.06871 6.36663 6.37286 7.04255C5.67701 7.71847 5.28608 8.63522 5.28608 9.59111C5.28608 10.547 5.67701 11.4637 6.37286 12.1397C7.06871 12.8156 8.01249 13.1953 8.99657 13.1953C9.98066 13.1953 10.9244 12.8156 11.6203 12.1397C12.3161 11.4637 12.7071 10.547 12.7071 9.59111C12.7071 8.63522 12.3161 7.71847 11.6203 7.04255C10.9244 6.36663 9.98066 5.98691 8.99657 5.98691Z" fill="#F0F0F0"/>
</svg>
