<svg width="16" height="19" viewBox="0 0 16 19" fill="none" xmlns="http://www.w3.org/2000/svg">
<path d="M3.55556 9.85748H5.33333V11.6596H3.55556V9.85748ZM16 4.45118V17.0659C16 17.5438 15.8127 18.0022 15.4793 18.3402C15.1459 18.6781 14.6937 18.868 14.2222 18.868H1.77778C1.30628 18.868 0.854097 18.6781 0.520699 18.3402C0.187301 18.0022 0 17.5438 0 17.0659V4.45118C0 3.97324 0.187301 3.51487 0.520699 3.17691C0.854097 2.83895 1.30628 2.64908 1.77778 2.64908H2.66667V0.846985H4.44444V2.64908H11.5556V0.846985H13.3333V2.64908H14.2222C14.6937 2.64908 15.1459 2.83895 15.4793 3.17691C15.8127 3.51487 16 3.97324 16 4.45118ZM1.77778 6.25328H14.2222V4.45118H1.77778V6.25328ZM14.2222 17.0659V8.05538H1.77778V17.0659H14.2222ZM10.6667 11.6596H12.4444V9.85748H10.6667V11.6596ZM7.11111 11.6596H8.88889V9.85748H7.11111V11.6596Z" fill="#F0F0F0"/>
</svg>
