<svg width="17" height="19" viewBox="0 0 17 19" fill="none" xmlns="http://www.w3.org/2000/svg">
<path d="M10.3889 12.3831H3.77778V14.1852H10.3889V12.3831ZM15.1111 16.8883H1.88889V6.97674H15.1111V16.8883ZM15.1111 2.47148H14.1667V0.669373H12.2778V2.47148H4.72222V0.669373H2.83333V2.47148H1.88889C1.38792 2.47148 0.907478 2.66134 0.553243 2.9993C0.199007 3.33726 0 3.79564 0 4.27358V16.8883C0 17.3663 0.199007 17.8246 0.553243 18.1626C0.907478 18.5006 1.38792 18.6904 1.88889 18.6904H15.1111C15.6121 18.6904 16.0925 18.5006 16.4468 18.1626C16.801 17.8246 17 17.3663 17 16.8883V4.27358C17 3.79564 16.801 3.33726 16.4468 2.9993C16.0925 2.66134 15.6121 2.47148 15.1111 2.47148ZM13.2222 8.77885H3.77778V10.581H13.2222V8.77885Z" fill="#555555"/>
</svg>
