<svg width="18" height="18" viewBox="0 0 18 18" fill="none" xmlns="http://www.w3.org/2000/svg">
<path d="M1.22775 0C0.549 0 0 0.635723 0 1.42082V16.5792C0 17.3643 0.549 18 1.22775 18H16.7723C17.451 18 18 17.3643 18 16.5792V1.42082C18 0.635723 17.451 0 16.7723 0H1.22775ZM1.6365 1.89414H16.3635V16.1059H14.319V15.1592H10.6365V16.1059H1.6365V1.89414ZM9 5.68416C8.67448 5.68416 8.36229 5.8339 8.13212 6.10044C7.90194 6.36698 7.77262 6.72848 7.77262 7.10542C7.77262 7.48236 7.90194 7.84387 8.13212 8.1104C8.36229 8.37694 8.67448 8.52668 9 8.52668C9.32552 8.52668 9.63771 8.37694 9.86788 8.1104C10.0981 7.84387 10.2274 7.48236 10.2274 7.10542C10.2274 6.72848 10.0981 6.36698 9.86788 6.10044C9.63771 5.8339 9.32552 5.68416 9 5.68416ZM5.72775 7.34295C5.21925 7.34295 4.806 7.82061 4.806 8.4077C4.81284 8.68517 4.91283 8.94861 5.08474 9.14207C5.25664 9.33553 5.48691 9.44376 5.72662 9.44376C5.96634 9.44376 6.19661 9.33553 6.36851 9.14207C6.54042 8.94861 6.64041 8.68517 6.64725 8.4077C6.64725 7.81974 6.2355 7.34295 5.72775 7.34295ZM12.2723 7.34295C12.1492 7.33888 12.0268 7.36342 11.9121 7.41513C11.7974 7.46683 11.6929 7.54464 11.6046 7.64395C11.5164 7.74326 11.4462 7.86206 11.3983 7.99332C11.3504 8.12458 11.3257 8.26563 11.3257 8.40813C11.3257 8.55063 11.3504 8.69168 11.3983 8.82294C11.4462 8.9542 11.5164 9.073 11.6046 9.17232C11.6929 9.27163 11.7974 9.34944 11.9121 9.40114C12.0268 9.45284 12.1492 9.47739 12.2723 9.47332C12.5117 9.4654 12.739 9.3497 12.9059 9.15081C13.0728 8.95191 13.1662 8.68549 13.1662 8.40813C13.1662 8.13078 13.0728 7.86436 12.9059 7.66546C12.739 7.46656 12.5117 7.35087 12.2723 7.34295ZM9 9.47332C8.11575 9.47332 7.19025 9.82158 6.639 10.347C6.34397 10.2403 6.03683 10.1853 5.72775 10.1837C4.74225 10.1837 3.681 10.7873 3.681 11.5377V12.3158H14.319V11.5377C14.319 10.7873 13.2578 10.1837 12.2723 10.1837C11.9648 10.1837 11.6497 10.2428 11.361 10.347C10.8097 9.82158 9.88425 9.47332 9 9.47332Z" fill="#555555"/>
</svg>
