<svg width="16" height="19" viewBox="0 0 16 19" fill="none" xmlns="http://www.w3.org/2000/svg">
<path d="M14.2222 2.02757H10.5067C10.1333 0.982347 9.15556 0.225464 8 0.225464C6.84444 0.225464 5.86667 0.982347 5.49333 2.02757H1.77778C0.8 2.02757 0 2.83851 0 3.82967V16.4444C0 17.4355 0.8 18.2465 1.77778 18.2465H14.2222C15.2 18.2465 16 17.4355 16 16.4444V3.82967C16 2.83851 15.2 2.02757 14.2222 2.02757ZM8 2.02757C8.48889 2.02757 8.88889 2.43304 8.88889 2.92862C8.88889 3.4242 8.48889 3.82967 8 3.82967C7.51111 3.82967 7.11111 3.4242 7.11111 2.92862C7.11111 2.43304 7.51111 2.02757 8 2.02757ZM9.77778 14.6423H3.55556V12.8402H9.77778V14.6423ZM12.4444 11.0381H3.55556V9.23598H12.4444V11.0381ZM12.4444 7.43387H3.55556V5.63177H12.4444V7.43387Z" fill="#555555"/>
</svg>
