<svg width="18" height="19" viewBox="0 0 18 19" fill="none" xmlns="http://www.w3.org/2000/svg">
<path d="M9 0.403015C4.02991 0.403015 0 4.43764 0 9.41354C0 14.3894 4.02991 18.4241 9 18.4241C13.9701 18.4241 18 14.3894 18 9.41354C18 4.43764 13.9701 0.403015 9 0.403015ZM12.5458 12.1831L11.9712 12.9675C11.9587 12.9846 11.943 12.999 11.9249 13.01C11.9068 13.0209 11.8867 13.0282 11.8658 13.0314C11.8449 13.0346 11.8236 13.0336 11.803 13.0285C11.7825 13.0234 11.7632 13.0143 11.7462 13.0017L8.42344 10.5761C8.40274 10.5612 8.38591 10.5415 8.37437 10.5188C8.36284 10.496 8.35693 10.4708 8.35714 10.4453V4.90828C8.35714 4.81978 8.42946 4.74738 8.51786 4.74738H9.48415C9.57254 4.74738 9.64487 4.81978 9.64487 4.90828V9.88619L12.5096 11.9598C12.5819 12.0101 12.598 12.1107 12.5458 12.1831Z" fill="#555555"/>
</svg>
