<svg width="18" height="19" viewBox="0 0 18 19" fill="none" xmlns="http://www.w3.org/2000/svg">
<path d="M9.00026 3.04176C9.13993 3.04176 9.27388 2.98621 9.37264 2.88733C9.4714 2.78845 9.52689 2.65435 9.52689 2.51451V0.663899C9.52689 0.524066 9.4714 0.38996 9.37264 0.291083C9.27388 0.192206 9.13993 0.136658 9.00026 0.136658C8.86059 0.136658 8.72664 0.192206 8.62788 0.291083C8.52912 0.38996 8.47363 0.524066 8.47363 0.663899V2.51451C8.47363 2.65435 8.52912 2.78845 8.62788 2.88733C8.72664 2.98621 8.86059 3.04176 9.00026 3.04176Z" fill="#555555"/>
<path d="M9.00026 15.2526C8.86059 15.2526 8.72664 15.3082 8.62788 15.407C8.52912 15.5059 8.47363 15.64 8.47363 15.7799V17.6305C8.47363 17.7703 8.52912 17.9044 8.62788 18.0033C8.72664 18.1022 8.86059 18.1577 9.00026 18.1577C9.13993 18.1577 9.27388 18.1022 9.37264 18.0033C9.4714 17.9044 9.52689 17.7703 9.52689 17.6305V15.7799C9.52689 15.64 9.4714 15.5059 9.37264 15.407C9.27388 15.3082 9.13993 15.2526 9.00026 15.2526Z" fill="#555555"/>
<path d="M3.94439 4.82911C4.04513 4.91548 4.17473 4.96062 4.30727 4.95549C4.43981 4.95037 4.56553 4.89536 4.65932 4.80146C4.75311 4.70756 4.80806 4.58169 4.81318 4.449C4.81829 4.3163 4.77321 4.18656 4.68694 4.0857L3.3809 2.77815C3.28015 2.69177 3.15056 2.64664 3.01802 2.65176C2.88548 2.65689 2.75975 2.71189 2.66597 2.80579C2.57218 2.89969 2.51723 3.02556 2.51211 3.15826C2.50699 3.29095 2.55207 3.42069 2.63835 3.52155L3.94439 4.82911Z" fill="#555555"/>
<path d="M14.0557 13.4653C13.9549 13.3789 13.8254 13.3338 13.6928 13.3389C13.5603 13.344 13.4346 13.399 13.3408 13.4929C13.247 13.5868 13.192 13.7127 13.1869 13.8454C13.1818 13.9781 13.2269 14.1078 13.3132 14.2087L14.6192 15.5162C14.7199 15.6026 14.8495 15.6478 14.982 15.6426C15.1146 15.6375 15.2403 15.5825 15.3341 15.4886C15.4279 15.3947 15.4828 15.2688 15.4879 15.1361C15.4931 15.0034 15.448 14.8737 15.3617 14.7728L14.0557 13.4653Z" fill="#555555"/>
<path d="M2.9017 9.14718C2.9017 9.00734 2.84622 8.87324 2.74746 8.77436C2.6487 8.67548 2.51475 8.61993 2.37508 8.61993H0.526625C0.386955 8.61993 0.253006 8.67548 0.154245 8.77436C0.0554835 8.87324 0 9.00734 0 9.14718C0 9.28701 0.0554835 9.42112 0.154245 9.52C0.253006 9.61887 0.386955 9.67442 0.526625 9.67442H2.37508C2.51475 9.67442 2.6487 9.61887 2.74746 9.52C2.84622 9.42112 2.9017 9.28701 2.9017 9.14718Z" fill="#555555"/>
<path d="M17.4732 8.61993H15.6248C15.4851 8.61993 15.3512 8.67548 15.2524 8.77436C15.1536 8.87324 15.0981 9.00734 15.0981 9.14718C15.0981 9.28701 15.1536 9.42112 15.2524 9.52C15.3512 9.61887 15.4851 9.67442 15.6248 9.67442H17.4732C17.6129 9.67442 17.7468 9.61887 17.8456 9.52C17.9444 9.42112 17.9998 9.28701 17.9998 9.14718C17.9998 9.00734 17.9444 8.87324 17.8456 8.77436C17.7468 8.67548 17.6129 8.61993 17.4732 8.61993Z" fill="#555555"/>
<path d="M3.94439 13.4653L2.63835 14.7728C2.55207 14.8737 2.50699 15.0034 2.51211 15.1361C2.51723 15.2688 2.57218 15.3947 2.66597 15.4886C2.75975 15.5825 2.88548 15.6375 3.01802 15.6426C3.15056 15.6478 3.28015 15.6026 3.3809 15.5162L4.68694 14.2087C4.77321 14.1078 4.81829 13.9781 4.81318 13.8454C4.80806 13.7127 4.75311 13.5868 4.65932 13.4929C4.56553 13.399 4.43981 13.344 4.30727 13.3389C4.17473 13.3338 4.04513 13.3789 3.94439 13.4653Z" fill="#555555"/>
<path d="M14.0557 4.82911L15.3617 3.52155C15.448 3.42069 15.4931 3.29095 15.4879 3.15826C15.4828 3.02556 15.4279 2.89969 15.3341 2.80579C15.2403 2.71189 15.1146 2.65689 14.982 2.65176C14.8495 2.64664 14.7199 2.69177 14.6192 2.77815L13.3132 4.0857C13.2269 4.18656 13.1818 4.3163 13.1869 4.449C13.192 4.58169 13.247 4.70756 13.3408 4.80146C13.4346 4.89536 13.5603 4.95037 13.6928 4.95549C13.8254 4.96062 13.9549 4.91548 14.0557 4.82911Z" fill="#555555"/>
<path d="M9.00014 14.4196C11.9086 14.4196 14.2664 12.0591 14.2664 9.14722C14.2664 6.23535 11.9086 3.87482 9.00014 3.87482C6.09167 3.87482 3.73389 6.23535 3.73389 9.14722C3.73389 12.0591 6.09167 14.4196 9.00014 14.4196Z" fill="#555555"/>
</svg>
